
<svg id="Layer_1" data-name="Layer 1" xmlns="http://www.w3.org/2000/svg" xmlns:xlink="http://www.w3.org/1999/xlink" width="52" height="44.9486" viewBox="0 0 52 44.9486"><defs><style>.cls-1{fill:url(#linear-gradient);}.cls-2{fill:url(#linear-gradient-2);}.cls-3{fill:url(#linear-gradient-3);}.cls-4{fill:url(#linear-gradient-4);}.cls-5{fill:url(#linear-gradient-5);}.cls-6{fill:url(#linear-gradient-6);}.cls-7{fill:url(#linear-gradient-7);}.cls-8{fill:url(#linear-gradient-8);}.cls-9{fill:url(#linear-gradient-9);}.cls-10{fill:url(#linear-gradient-10);}.cls-11{fill:url(#linear-gradient-11);}.cls-12{fill:url(#linear-gradient-12);}.cls-13{fill:url(#linear-gradient-13);}.cls-14{fill:url(#linear-gradient-14);}.cls-15{opacity:0.45024;isolation:isolate;fill:url(#linear-gradient-15);}.cls-16{fill:url(#linear-gradient-16);}.cls-17{fill:url(#linear-gradient-17);}.cls-18{fill:url(#linear-gradient-18);}.cls-19{fill:url(#linear-gradient-19);}.cls-20{fill:url(#linear-gradient-20);}.cls-21{fill:url(#linear-gradient-21);}.cls-22{fill:url(#linear-gradient-22);}.cls-23{fill:url(#linear-gradient-23);}.cls-24{fill:url(#linear-gradient-24);}.cls-25{fill:url(#linear-gradient-25);}.cls-26{fill:url(#linear-gradient-26);}.cls-27{fill:url(#linear-gradient-27);}.cls-28{fill:url(#linear-gradient-28);}.cls-29{fill:url(#linear-gradient-29);}.cls-30{fill:url(#linear-gradient-30);}.cls-31{fill:url(#linear-gradient-31);}.cls-32{fill:url(#linear-gradient-32);}.cls-33{fill:url(#linear-gradient-33);}.cls-34{fill:url(#linear-gradient-34);}.cls-35{fill:url(#linear-gradient-35);}.cls-36{fill:url(#linear-gradient-36);}.cls-37{fill:url(#linear-gradient-37);}.cls-38{fill:url(#linear-gradient-38);}.cls-39{fill:url(#linear-gradient-39);}.cls-40{fill:url(#linear-gradient-40);}.cls-41{fill:url(#linear-gradient-41);}.cls-42{fill:url(#linear-gradient-42);}.cls-43{fill:url(#linear-gradient-43);}.cls-44{fill:url(#linear-gradient-44);}</style><linearGradient id="linear-gradient" x1="-272.69762" y1="503.21151" x2="-271.85356" y2="503.21151" gradientTransform="matrix(2.37671, 0, 0, -18.62507, 695.29798, 9391.39488)" gradientUnits="userSpaceOnUse"><stop offset="0" stop-color="#e4f2ff"/><stop offset="1" stop-color="#b2cbff"/></linearGradient><linearGradient id="linear-gradient-2" x1="-272.00267" y1="430.32234" x2="-272.53469" y2="431.40803" gradientTransform="matrix(2.37671, 0, 0, -4.81775, 695.29798, 2087.31976)" gradientUnits="userSpaceOnUse"><stop offset="0" stop-color="#3f3ced" stop-opacity="0"/><stop offset="0.2796" stop-color="#3c3de4" stop-opacity="0.28"/><stop offset="0.7305" stop-color="#3541cc" stop-opacity="0.731"/><stop offset="1" stop-color="#2f43bb"/></linearGradient><linearGradient id="linear-gradient-3" x1="-410.94286" y1="468.94286" x2="-410.29528" y2="468.29527" gradientTransform="matrix(7.88361, 0, 0, -7.88361, 3286.2957, 3703.89006)" gradientUnits="userSpaceOnUse"><stop offset="0" stop-color="#49e484"/><stop offset="1" stop-color="#2da35a"/></linearGradient><linearGradient id="linear-gradient-4" x1="-398.86464" y1="456.86464" x2="-399.39682" y2="457.39682" gradientTransform="matrix(6.57953, 0, 0, -6.57953, 2672.72673, 3014.68453)" gradientUnits="userSpaceOnUse"><stop offset="0" stop-color="#80f27f" stop-opacity="0"/><stop offset="1" stop-color="#c2ff8b"/></linearGradient><linearGradient id="linear-gradient-5" x1="-407.47807" y1="465.24189" x2="-406.07063" y2="466.3851" gradientTransform="matrix(7.46791, 0, 0, -7.46791, 3094.91985, 3488.46279)" gradientUnits="userSpaceOnUse"><stop offset="0" stop-color="#1a703b" stop-opacity="0"/><stop offset="1" stop-color="#1a703b"/></linearGradient><linearGradient id="linear-gradient-6" x1="-345.28188" y1="454.87267" x2="-345.28188" y2="454.09505" gradientTransform="matrix(3.76144, 0, 0, -6.3806, 1350.48191, 2933.76659)" gradientUnits="userSpaceOnUse"><stop offset="0" stop-color="#9b62cd"/><stop offset="0.3003" stop-color="#985dcb"/><stop offset="0.6716" stop-color="#8f4ec7"/><stop offset="1" stop-color="#833ac1"/></linearGradient><linearGradient id="linear-gradient-7" x1="-345.25466" y1="454.41854" x2="-345.66998" y2="454.79093" gradientTransform="matrix(3.76144, 0, 0, -6.3806, 1350.48191, 2933.76659)" gradientUnits="userSpaceOnUse"><stop offset="0" stop-color="#833ac1" stop-opacity="0"/><stop offset="1" stop-color="#6e566e"/></linearGradient><linearGradient id="linear-gradient-8" x1="-387.8302" y1="479.95483" x2="-387.8302" y2="479.17721" gradientTransform="matrix(5.69736, 0, 0, -9.66445, 2257.32328, 4669.28111)" gradientUnits="userSpaceOnUse"><stop offset="0" stop-color="#ff7044"/><stop offset="1" stop-color="#f82814"/></linearGradient><linearGradient id="linear-gradient-9" x1="-387.76984" y1="479.51497" x2="-388.48147" y2="480.15303" gradientTransform="matrix(5.69736, 0, 0, -9.66445, 2257.32338, 4669.28111)" gradientUnits="userSpaceOnUse"><stop offset="0" stop-color="#f82814" stop-opacity="0"/><stop offset="1" stop-color="#c0272d"/></linearGradient><linearGradient id="linear-gradient-10" x1="-424.79708" y1="474.22858" x2="-424.79708" y2="473.16112" gradientTransform="matrix(10.30569, 0, 0, -8.62496, 4403.23284, 4100.12687)" xlink:href="#linear-gradient-8"/><linearGradient id="linear-gradient-11" x1="-415.97953" y1="472.5084" x2="-416.37473" y2="473.04348" gradientTransform="matrix(8.62588, 0, 0, -8.42392, 3613.72503, 3993.9771)" gradientUnits="userSpaceOnUse"><stop offset="0" stop-color="#ff7044" stop-opacity="0"/><stop offset="1" stop-color="#ffa325"/></linearGradient><linearGradient id="linear-gradient-12" x1="-394.52764" y1="474.37411" x2="-394.52764" y2="473.30665" gradientTransform="matrix(6.19962, 0, 0, -8.62507, 2473.38273, 4100.18085)" xlink:href="#linear-gradient-9"/><linearGradient id="linear-gradient-13" x1="-405.05981" y1="437.9044" x2="-405.05981" y2="439.52397" gradientTransform="matrix(7.19741, 0, 0, -5.20163, 2936.7892, 2285.5049)" gradientUnits="userSpaceOnUse"><stop offset="0" stop-color="#fff" stop-opacity="0"/><stop offset="1" stop-color="#fff"/></linearGradient><linearGradient id="linear-gradient-14" x1="20.19131" y1="14.63002" x2="32.13081" y2="18.18164" gradientUnits="userSpaceOnUse"><stop offset="0" stop-color="#5b5b8d"/><stop offset="1" stop-color="#3b3b64"/></linearGradient><linearGradient id="linear-gradient-15" x1="25.79161" y1="16.97538" x2="23.82688" y2="8.88977" gradientUnits="userSpaceOnUse"><stop offset="0" stop-color="#bdc2d1" stop-opacity="0"/><stop offset="0.3183" stop-color="#c1c6d4" stop-opacity="0.318"/><stop offset="0.6082" stop-color="#ccd0dd" stop-opacity="0.608"/><stop offset="0.8861" stop-color="#dee2ec" stop-opacity="0.886"/><stop offset="1" stop-color="#e8ecf4"/></linearGradient><linearGradient id="linear-gradient-16" x1="-458.66243" y1="514.35657" x2="-458.13217" y2="513.90698" gradientTransform="matrix(38.91496, 0, 0, -32.77948, 17863.89706, 16885.57064)" xlink:href="#linear-gradient-6"/><linearGradient id="linear-gradient-17" x1="-443.6881" y1="340.31039" x2="-443.6881" y2="341.41995" gradientTransform="matrix(17.56682, 0, 0, -2.50722, 7819.59775, 873.41583)" gradientUnits="userSpaceOnUse"><stop offset="0" stop-color="#9b62cd"/><stop offset="0.1454" stop-color="#965acb"/><stop offset="0.672" stop-color="#8843c4"/><stop offset="1" stop-color="#833ac1"/></linearGradient><linearGradient id="linear-gradient-18" x1="-457.7962" y1="513.48121" x2="-458.875" y2="514.10117" gradientTransform="matrix(37.78514, 0, 0, -31.64965, 17332.87903, 16289.02172)" gradientUnits="userSpaceOnUse"><stop offset="0" stop-color="#9b62cd" stop-opacity="0"/><stop offset="1" stop-color="#ff75c8"/></linearGradient><linearGradient id="linear-gradient-19" x1="25.40702" y1="51.65642" x2="25.40702" y2="39.20155" gradientTransform="matrix(1, 0, 0, 1, 0, 0)" xlink:href="#linear-gradient-7"/><linearGradient id="linear-gradient-20" x1="-459.51539" y1="507.87903" x2="-459.45412" y2="507.65633" gradientTransform="matrix(42.81425, 0, 0, -22.775, 19698.5122, 11598.20484)" gradientUnits="userSpaceOnUse"><stop offset="0" stop-color="#ffd945"/><stop offset="0.3043" stop-color="#ffcd3e"/><stop offset="0.8558" stop-color="#ffad2b"/><stop offset="1" stop-color="#ffa325"/></linearGradient><linearGradient id="linear-gradient-21" x1="-459.19165" y1="507.0431" x2="-459.51119" y2="507.33108" gradientTransform="matrix(41.89997, 0, 0, -22.01319, 19268.79873, 11195.97101)" gradientUnits="userSpaceOnUse"><stop offset="0" stop-color="#ffd945" stop-opacity="0"/><stop offset="1" stop-color="#fbed21"/></linearGradient><linearGradient id="linear-gradient-22" x1="-423.94121" y1="498.08611" x2="-423.94121" y2="497.49958" gradientTransform="matrix(10.11624, 0, 0, -15.38094, 4300.88449, 7690.44506)" gradientUnits="userSpaceOnUse"><stop offset="0" stop-color="#fff"/><stop offset="1" stop-color="#e4f2ff"/></linearGradient><linearGradient id="linear-gradient-23" x1="-423.94074" y1="499.03641" x2="-423.94074" y2="498.4682" gradientTransform="matrix(10.11614, 0, 0, -15.87703, 4314.05122, 7952.62653)" xlink:href="#linear-gradient-22"/><linearGradient id="linear-gradient-24" x1="-423.94122" y1="498.0861" x2="-423.94122" y2="497.49957" gradientTransform="matrix(10.11625, 0, 0, -15.38094, 4327.31556, 7690.44496)" xlink:href="#linear-gradient-22"/><linearGradient id="linear-gradient-25" x1="-423.94121" y1="432.34576" x2="-423.94121" y2="432.92796" gradientTransform="matrix(10.11624, 0, 0, -4.88352, 4300.88449, 2137.30737)" xlink:href="#linear-gradient-2"/><linearGradient id="linear-gradient-26" x1="-423.94121" y1="411.98526" x2="-423.94121" y2="412.68973" gradientTransform="matrix(10.11624, 0, 0, -4.03591, 4314.09873, 1688.67669)" xlink:href="#linear-gradient-2"/><linearGradient id="linear-gradient-27" x1="-423.94121" y1="432.34574" x2="-423.94121" y2="432.92793" gradientTransform="matrix(10.11624, 0, 0, -4.88352, 4327.31466, 2137.30727)" xlink:href="#linear-gradient-2"/><linearGradient id="linear-gradient-28" x1="12.46312" y1="32.3568" x2="7.43868" y2="28.12191" gradientTransform="matrix(1, 0, 0, 1, 0, 0)" xlink:href="#linear-gradient-2"/><linearGradient id="linear-gradient-29" x1="-409.02593" y1="487.21165" x2="-408.02593" y2="487.21165" gradientTransform="matrix(7.59995, 0, 0, -11.40758, 3116.97001, 5590.52215)" xlink:href="#linear-gradient-20"/><linearGradient id="linear-gradient-30" x1="-402.62286" y1="484.46481" x2="-401.62286" y2="484.46481" gradientTransform="matrix(6.88827, 0, 0, -10.69599, 2782.12146, 5214.449)" xlink:href="#linear-gradient-8"/><linearGradient id="linear-gradient-31" x1="25.5351" y1="32.17522" x2="20.65422" y2="27.79678" gradientTransform="matrix(1, 0, 0, 1, 0, 0)" xlink:href="#linear-gradient-2"/><linearGradient id="linear-gradient-32" x1="28.98822" y1="34.88167" x2="23.46134" y2="31.43634" gradientTransform="matrix(1, 0, 0, 1, 0, 0)" xlink:href="#linear-gradient-2"/><linearGradient id="linear-gradient-33" x1="-409.02593" y1="487.21165" x2="-408.02593" y2="487.21165" gradientTransform="matrix(7.59995, 0, 0, -11.40758, 3130.18482, 5590.52215)" xlink:href="#linear-gradient-20"/><linearGradient id="linear-gradient-34" x1="-402.62285" y1="484.46481" x2="-401.62285" y2="484.46481" gradientTransform="matrix(6.88827, 0, 0, -10.69599, 2795.33604, 5214.449)" xlink:href="#linear-gradient-8"/><linearGradient id="linear-gradient-35" x1="38.67917" y1="32.40038" x2="33.22407" y2="28.52439" gradientTransform="matrix(1, 0, 0, 1, 0, 0)" xlink:href="#linear-gradient-2"/><linearGradient id="linear-gradient-36" x1="41.93121" y1="34.57456" x2="36.54789" y2="31.34456" gradientTransform="matrix(1, 0, 0, 1, 0, 0)" xlink:href="#linear-gradient-2"/><linearGradient id="linear-gradient-37" x1="-409.02591" y1="487.21165" x2="-408.02591" y2="487.21165" gradientTransform="matrix(7.59995, 0, 0, -11.40758, 3143.39896, 5590.52215)" xlink:href="#linear-gradient-20"/><linearGradient id="linear-gradient-38" x1="-402.62184" y1="484.46481" x2="-401.62184" y2="484.46481" gradientTransform="matrix(6.88816, 0, 0, -10.69599, 2808.50357, 5214.449)" xlink:href="#linear-gradient-8"/><linearGradient id="linear-gradient-39" x1="15.86229" y1="34.99448" x2="9.90474" y2="30.75959" gradientTransform="matrix(1, 0, 0, 1, 0, 0)" xlink:href="#linear-gradient-2"/><linearGradient id="linear-gradient-40" x1="-175.06793" y1="383.69958" x2="-174.03908" y2="383.69958" gradientTransform="matrix(1.59365, 0, 0, -3.25275, 304.21799, 1253.76538)" xlink:href="#linear-gradient-20"/><linearGradient id="linear-gradient-41" x1="-325.69963" y1="233.06802" x2="-325.69963" y2="232.03916" gradientTransform="matrix(3.25275, 0, 0, -1.59365, 1092.07683, 383.07002)" xlink:href="#linear-gradient-20"/><linearGradient id="linear-gradient-42" x1="-325.70413" y1="233.06802" x2="-325.70413" y2="232.03916" gradientTransform="matrix(3.25286, 0, 0, -1.59365, 1077.62664, 383.07002)" xlink:href="#linear-gradient-20"/><linearGradient id="linear-gradient-43" x1="-300.32609" y1="358.32053" x2="-299.90711" y2="357.90156" gradientTransform="matrix(2.76691, 0, 0, -2.76682, 861.23289, 998.76176)" xlink:href="#linear-gradient-20"/><linearGradient id="linear-gradient-44" x1="-300.21853" y1="358.32628" x2="-300.63751" y2="357.90729" gradientTransform="matrix(2.76686, 0, 0, -2.76691, 851.21934, 998.80872)" xlink:href="#linear-gradient-20"/></defs><title>slots</title><g id="ic_games_slots" data-name="ic/games/slots"><g id="_049-slot-machine" data-name="049-slot-machine"><polygon id="Path" class="cls-1" points="46.87 9.731 49.247 9.731 49.247 28.356 46.87 28.356 46.87 9.731"/><polygon id="Path-2" data-name="Path" class="cls-2" points="46.87 12.172 49.247 14.548 49.247 9.731 46.87 9.731 46.87 12.172"/><circle id="Oval" class="cls-3" cx="48.0582" cy="8.4033" r="3.9418"/><circle id="Oval-2" data-name="Oval" class="cls-4" cx="48.0582" cy="8.4033" r="3.28976"/><path id="Path-3" data-name="Path" class="cls-5" d="M53.82151,8.93623a3.94293,3.94293,0,0,1-5.28942,5.28942,3.94223,3.94223,0,1,0,5.28942-5.28942Z" transform="translate(-4 -4.05904)"/><path id="Path-4" data-name="Path" class="cls-6" d="M51.62231,35.80779h-1.777v-6.3806h1.777a1.98448,1.98448,0,0,1,1.98447,1.98446v2.41168a1.98448,1.98448,0,0,1-1.98447,1.98446Z" transform="translate(-4 -4.05904)"/><path id="Path-5" data-name="Path" class="cls-7" d="M50.54938,29.42719h-.704v6.3806h1.777a1.98448,1.98448,0,0,0,1.98447-1.98446V32.48458Z" transform="translate(-4 -4.05904)"/><path id="Path-6" data-name="Path" class="cls-8" d="M48.70726,37.44966h-3.8428V27.78521h3.8428a1.85456,1.85456,0,0,1,1.85456,1.85456V35.5951a1.8545,1.8545,0,0,1-1.85456,1.85456Z" transform="translate(-4 -4.05904)"/><path id="Path-7" data-name="Path" class="cls-9" d="M46.81109,27.81539l.04446-.03018h-1.991v9.66445h3.8428a1.85456,1.85456,0,0,0,1.85456-1.85456v-4.029Z" transform="translate(-4 -4.05904)"/><path id="Path-8" data-name="Path" class="cls-10" d="M30.56,17.1455H20.25428V13.67333a5.15285,5.15285,0,0,1,10.30569,0V17.1455Z" transform="translate(-4 -4.05904)"/><path id="Path-9" data-name="Path" class="cls-11" d="M27.76594,9.09192a3.3,3.3,0,0,0-3.03782,0,5.15088,5.15088,0,0,0-2.794,4.58141V17.1455H30.56V13.67333a5.15118,5.15118,0,0,0-2.794-4.58141Z" transform="translate(-4 -4.05904)"/><path id="Path-10" data-name="Path" class="cls-12" d="M25.40707,8.52053a5.16926,5.16926,0,0,0-1.04683.10665,5.15454,5.15454,0,0,1,4.10607,5.04625V17.1456h2.09356V13.67343a5.1528,5.1528,0,0,0-5.1528-5.1529Z" transform="translate(-4 -4.05904)"/><ellipse id="Oval-3" data-name="Oval" class="cls-13" cx="21.40707" cy="7.44263" rx="3.59871" ry="2.60082"/><path id="Path-11" data-name="Path" class="cls-14" d="M32.23967,18.1753H18.57448V15.36853A1.58253,1.58253,0,0,1,20.157,13.786H30.65714a1.58253,1.58253,0,0,1,1.58253,1.58254Z" transform="translate(-4 -4.05904)"/><path id="Path-12" data-name="Path" class="cls-15" d="M32.23967,18.1753V15.36853a1.57541,1.57541,0,0,0-.27132-.88625,1.57253,1.57253,0,0,0-.68742-.15875H20.78081a1.58253,1.58253,0,0,0-1.58254,1.58253V18.1753Z" transform="translate(-4 -4.05904)"/><path id="Path-13" data-name="Path" class="cls-16" d="M42.20063,49.00723H8.61352a2.66388,2.66388,0,0,1-2.66393-2.66394V18.89168a2.66387,2.66387,0,0,1,2.66393-2.66393H42.20063a2.66393,2.66393,0,0,1,2.66393,2.66393V46.34329A2.664,2.664,0,0,1,42.20063,49.00723Z" transform="translate(-4 -4.05904)"/><path id="Path-14" data-name="Path" class="cls-17" d="M32.93688,20.60605H17.87727a1.25361,1.25361,0,0,1,0-2.50722H32.93688a1.25361,1.25361,0,1,1,0,2.50722Z" transform="translate(-4 -4.05904)"/><path id="Path-15" data-name="Path" class="cls-18" d="M9.74335,17.35758a2.66393,2.66393,0,0,0-2.66393,2.66393V47.47312a2.65195,2.65195,0,0,0,.30211,1.232,2.65153,2.65153,0,0,0,1.232.30212H42.20063a2.66394,2.66394,0,0,0,2.66393-2.66394V18.89168a2.65192,2.65192,0,0,0-.30211-1.232,2.65155,2.65155,0,0,0-1.232-.30211Z" transform="translate(-4 -4.05904)"/><path id="Path-16" data-name="Path" class="cls-19" d="M5.9501,41.27717v1.38126l6.3492,6.3492H42.201a2.66368,2.66368,0,0,0,2.66292-2.664V41.27717Z" transform="translate(-4 -4.05904)"/><path id="Path-17" data-name="Path" class="cls-20" d="M4,24.59363V40.64144a2.004,2.004,0,0,0,1.72365,1.98518,141.22651,141.22651,0,0,0,39.367,0,2.00419,2.00419,0,0,0,1.72365-1.98518V24.59363a2.004,2.004,0,0,0-1.72365-1.98517,141.22613,141.22613,0,0,0-39.36695,0A2.004,2.004,0,0,0,4,24.59363Z" transform="translate(-4 -4.05904)"/><path id="Path-18" data-name="Path" class="cls-21" d="M6.63783,23.37031a2.00418,2.00418,0,0,0-1.72365,1.98517V41.40329a1.998,1.998,0,0,0,.324,1.09,1.99054,1.99054,0,0,0,.48534.13336,141.22651,141.22651,0,0,0,39.36695,0,2.00419,2.00419,0,0,0,1.72365-1.98518V24.59363a1.9981,1.9981,0,0,0-.324-1.09,1.99009,1.99009,0,0,0-.48534-.13336,141.22232,141.22232,0,0,0-39.36695,0Z" transform="translate(-4 -4.05904)"/><path id="Path-19" data-name="Path" class="cls-22" d="M17.25011,25.549V39.686a.68207.68207,0,0,1-.763.62074c-2.91527-.16253-5.82981-.40458-8.72672-.72372a.66021.66021,0,0,1-.62655-.617v-12.697a.66013.66013,0,0,1,.62655-.617c2.89691-.31914,5.81145-.5612,8.72672-.72372A.682.682,0,0,1,17.25011,25.549Z" transform="translate(-4 -4.05904)"/><path id="Path-20" data-name="Path" class="cls-23" d="M30.46525,25.36109V39.87388a.67137.67137,0,0,1-.69405.62166q-2.186.06087-4.3629.06046h-.00112q-2.177,0-4.364-.06046a.67136.67136,0,0,1-.694-.62166V25.36109a.67135.67135,0,0,1,.694-.62165q2.18614-.06088,4.364-.06047,2.177,0,4.364.06047A.67136.67136,0,0,1,30.46525,25.36109Z" transform="translate(-4 -4.05904)"/><path id="Path-21" data-name="Path" class="cls-24" d="M43.68028,26.26905V38.96592a.66014.66014,0,0,1-.62655.617c-2.89691.31913-5.81145.56119-8.72672.72371a.682.682,0,0,1-.763-.62073V25.549a.68206.68206,0,0,1,.763-.62073c2.91527.16252,5.82981.40458,8.72672.72372A.6603.6603,0,0,1,43.68028,26.26905Z" transform="translate(-4 -4.05904)"/><path id="Path-22" data-name="Path" class="cls-25" d="M17.25011,25.54921v3.31016q-5.06311.29211-10.11624.95139v-3.5413A.66.66,0,0,1,7.76,25.65209q4.34613-.47795,8.72672-.72352a.682.682,0,0,1,.76338.62064Z" transform="translate(-4 -4.05904)"/><path id="Path-23" data-name="Path" class="cls-26" d="M30.46525,25.36109v3.35329q-5.05655-.18261-10.11625,0V25.36109a.67175.67175,0,0,1,.69364-.62176q2.18721-.06147,4.36443-.06087,2.17728,0,4.36444.06087a.67185.67185,0,0,1,.69374.62176Z" transform="translate(-4 -4.05904)"/><path id="Path-24" data-name="Path" class="cls-27" d="M43.68028,26.26936v3.5413q-5.05149-.65887-10.11624-.9514V25.54911a.682.682,0,0,1,.76338-.62064q4.37274.24395,8.72672.72352a.66009.66009,0,0,1,.62614.61737Z" transform="translate(-4 -4.05904)"/><path id="Path-25" data-name="Path" class="cls-28" d="M17.25011,39.686V28.7313l-1.3574-1.3574a.96429.96429,0,0,0-.24909-.22809,1.25912,1.25912,0,0,0-.70425-.23216H9.4446a1.22172,1.22172,0,0,0-.72749.23216.64337.64337,0,0,0-.325.51072v2.39924a.5816.5816,0,0,0,.27132.47392L11.62157,33.489l-1.852,3.20707a.8424.8424,0,0,0-.10828.40244,1.03151,1.03151,0,0,0,.40795.81385l2.09488,2.09489q2.15922.17849,4.323.29935a.68192.68192,0,0,0,.763-.62063Z" transform="translate(-4 -4.05904)"/><path id="Path-26" data-name="Path" class="cls-29" d="M8.39206,30.05577V27.65653a.643.643,0,0,1,.325-.51072,1.22194,1.22194,0,0,1,.72749-.23216h5.49487a1.25912,1.25912,0,0,1,.70425.23216.63917.63917,0,0,1,.3483.51072v1.93481a3.42673,3.42673,0,0,1-.49533,1.47048l-3.622,6.93435a.6957.6957,0,0,1-.6811.325,1.71518,1.71518,0,0,1-1.06019-.356,1.05537,1.05537,0,0,1-.47208-.86677.8421.8421,0,0,1,.10828-.40244l3.80773-6.59391V29.01863H10.8067v1.037a.61953.61953,0,0,1-.37155.52622,1.65655,1.65655,0,0,1-.85127.21677,1.56405,1.56405,0,0,1-.84362-.21677A.62047.62047,0,0,1,8.39206,30.05577Z" transform="translate(-4 -4.05904)"/><path id="Path-27" data-name="Path" class="cls-30" d="M11.19364,37.96548a1.35738,1.35738,0,0,1-.84587-.28416.69094.69094,0,0,1-.33055-.58271.48663.48663,0,0,1,.06352-.22961l3.85248-6.6714V28.66289H10.45075v1.39288c0,.06985-.06556.14346-.19484.21881a1.29679,1.29679,0,0,1-.67213.16834,1.20783,1.20783,0,0,1-.6554-.16294c-.18047-.11226-.18047-.19352-.18047-.22421V27.65653c0-.0831.11022-.17425.176-.22115a.867.867,0,0,1,.52071-.16589h5.49487a.90494.90494,0,0,1,.50685.17242c.11889.07922.18985.15946.18985.21462v1.93481a3.02633,3.02633,0,0,1-.45342,1.30306l-3.62338,6.9371C11.542,37.86423,11.489,37.96548,11.19364,37.96548Z" transform="translate(-4 -4.05904)"/><path id="Path-28" data-name="Path" class="cls-31" d="M30.46525,28.731V39.87388a.67182.67182,0,0,1-.69364.62176q-1.9266.05475-3.84443.05975l-2.6309-2.63089-.01213-.01214a1.03114,1.03114,0,0,1-.40825-.81426.84327.84327,0,0,1,.10838-.40162l1.852-3.20728L21.878,30.52979a.58274.58274,0,0,1-.271-.47463V27.65664a.64358.64358,0,0,1,.32525-.51113,1.22224,1.22224,0,0,1,.728-.23237h5.49406a1.25912,1.25912,0,0,1,.70475.23237.98957.98957,0,0,1,.24888.22788Z" transform="translate(-4 -4.05904)"/><path id="Path-29" data-name="Path" class="cls-32" d="M30.46525,28.731V39.87388a.67182.67182,0,0,1-.69364.62176q-1.9266.05475-3.84443.05975l-2.6309-2.63089c.01662.01325.03426.02763.052.041a1.716,1.716,0,0,0,1.061.35625.69544.69544,0,0,0,.68038-.32525L28.71183,31.062a3.4377,3.4377,0,0,0,.49563-1.47027v-1.935a.47078.47078,0,0,0-.09737-.281Z" transform="translate(-4 -4.05904)"/><path id="Path-30" data-name="Path" class="cls-33" d="M21.6071,30.05577V27.65653a.643.643,0,0,1,.32505-.51072,1.22194,1.22194,0,0,1,.72749-.23216h5.49487a1.25909,1.25909,0,0,1,.70424.23216.63937.63937,0,0,1,.3483.51072v1.93481a3.42682,3.42682,0,0,1-.49532,1.47048l-3.622,6.93435a.69569.69569,0,0,1-.6811.325,1.71528,1.71528,0,0,1-1.06029-.356,1.05539,1.05539,0,0,1-.47207-.86677.8421.8421,0,0,1,.10828-.40244l3.80772-6.59391V29.01863H24.02163v1.037a.61954.61954,0,0,1-.37154.52622,1.65661,1.65661,0,0,1-.85128.21677,1.56405,1.56405,0,0,1-.84362-.21677A.62056.62056,0,0,1,21.6071,30.05577Z" transform="translate(-4 -4.05904)"/><path id="Path-31" data-name="Path" class="cls-34" d="M24.40867,37.96548a1.35736,1.35736,0,0,1-.84586-.28416.69112.69112,0,0,1-.33066-.58271.48663.48663,0,0,1,.06352-.22961l3.85249-6.6714V28.66289H23.66579v1.39288c0,.06985-.06556.14346-.19485.21881a1.29676,1.29676,0,0,1-.67213.16834,1.20788,1.20788,0,0,1-.6554-.16294c-.18047-.11226-.18047-.19352-.18047-.22421V27.65653c0-.0831.11022-.17425.176-.22115a.86694.86694,0,0,1,.52071-.16589h5.49487a.905.905,0,0,1,.50685.17242c.11888.07922.18985.15946.18985.21462v1.93481a3.02648,3.02648,0,0,1-.45342,1.30306l-3.62338,6.9371c-.01723.03273-.07035.134-.36574.134Z" transform="translate(-4 -4.05904)"/><path id="Path-32" data-name="Path" class="cls-35" d="M43.68028,28.731V38.96561a.66.66,0,0,1-.62614.61738q-2.21046.24395-4.43417.427h-.00224l-.02325-.00224-2.0954-2.0954a1.03114,1.03114,0,0,1-.40825-.81426.84327.84327,0,0,1,.10838-.40162l1.852-3.20728-2.95829-2.95941a.58274.58274,0,0,1-.271-.47463V27.65664a.64358.64358,0,0,1,.32525-.51113,1.22227,1.22227,0,0,1,.728-.23237h5.494a1.25909,1.25909,0,0,1,.70475.23237.98963.98963,0,0,1,.24889.22788Z" transform="translate(-4 -4.05904)"/><path id="Path-33" data-name="Path" class="cls-36" d="M43.68028,28.731V38.96561a.66.66,0,0,1-.62614.61738q-2.21214.24395-4.43631.427l-.02325-.00224L36.51132,37.9245c.01662.01325.03426.02763.052.041a1.71593,1.71593,0,0,0,1.061.35625.69547.69547,0,0,0,.68039-.32525L41.92686,31.062a3.4391,3.4391,0,0,0,.49563-1.47027v-1.935a.47072.47072,0,0,0-.09737-.281Z" transform="translate(-4 -4.05904)"/><path id="Path-34" data-name="Path" class="cls-37" d="M34.82213,30.05577V27.65653a.643.643,0,0,1,.325-.51072,1.22194,1.22194,0,0,1,.72749-.23216h5.49487a1.2591,1.2591,0,0,1,.70425.23216.63938.63938,0,0,1,.34829.51072v1.93481a3.42668,3.42668,0,0,1-.49532,1.47048l-3.62195,6.93435a.6957.6957,0,0,1-.6811.325,1.71479,1.71479,0,0,1-1.06019-.356,1.0554,1.0554,0,0,1-.47208-.86677.842.842,0,0,1,.10829-.40244l3.80772-6.59391V29.01863H37.23677v1.037a.61955.61955,0,0,1-.37155.52622,1.65655,1.65655,0,0,1-.85127.21677,1.56405,1.56405,0,0,1-.84362-.21677.62069.62069,0,0,1-.3482-.52612Z" transform="translate(-4 -4.05904)"/><path id="Path-35" data-name="Path" class="cls-38" d="M37.62371,37.96548a1.35738,1.35738,0,0,1-.84587-.28416.691.691,0,0,1-.33056-.58271.48665.48665,0,0,1,.06353-.22961l3.85248-6.6714V28.66289H36.88092v1.39288c0,.06985-.06556.14346-.19484.21881a1.29651,1.29651,0,0,1-.67213.16834,1.20785,1.20785,0,0,1-.6554-.16294c-.18047-.11226-.18047-.19352-.18047-.22421V27.65653c0-.0831.11022-.17425.176-.22115a.867.867,0,0,1,.52072-.16589h5.49487a.90437.90437,0,0,1,.50674.17242c.11889.07922.18985.15946.18985.21462v1.93481a3.02633,3.02633,0,0,1-.45342,1.30306l-3.62338,6.9371c-.01723.03273-.07025.134-.36573.134Z" transform="translate(-4 -4.05904)"/><path id="Path-36" data-name="Path" class="cls-39" d="M17.25011,28.731V39.68587a.68207.68207,0,0,1-.76338.62063q-2.16228-.11944-4.32242-.29874L10.08115,37.9245c.01661.01325.03425.02763.052.041a1.71593,1.71593,0,0,0,1.061.35625.69535.69535,0,0,0,.68038-.32525L15.49669,31.062a3.4391,3.4391,0,0,0,.49563-1.47027v-1.935a.47078.47078,0,0,0-.09737-.281Z" transform="translate(-4 -4.05904)"/><path id="Path-37" data-name="Path" class="cls-40" d="M26.2039,6.515V4.85586a.79683.79683,0,0,0-1.59365,0V6.515a.79683.79683,0,1,0,1.59365,0Z" transform="translate(-4 -4.05904)"/><path id="Path-38" data-name="Path" class="cls-41" d="M31.82642,12.62415h1.65911a.79683.79683,0,0,0,0-1.59365H31.82642a.79683.79683,0,0,0,0,1.59365Z" transform="translate(-4 -4.05904)"/><path id="Path-39" data-name="Path" class="cls-42" d="M17.32862,12.62415h1.65921a.79683.79683,0,0,0,0-1.59365H17.32862a.79683.79683,0,0,0,0,1.59365Z" transform="translate(-4 -4.05904)"/><path id="Path-40" data-name="Path" class="cls-43" d="M30.37838,8.64717,31.55154,7.474a.79686.79686,0,1,0-1.127-1.12687L29.2514,7.5203a.79686.79686,0,1,0,1.127,1.12687Z" transform="translate(-4 -4.05904)"/><path id="Path-41" data-name="Path" class="cls-44" d="M19.26261,7.47391l1.17316,1.17316a.79686.79686,0,1,0,1.12687-1.127L20.38948,6.34693a.79686.79686,0,1,0-1.12687,1.127Z" transform="translate(-4 -4.05904)"/></g></g></svg>